<svg version="1.1" id="Layer_1" xmlns="http://www.w3.org/2000/svg" xmlns:xlink="http://www.w3.org/1999/xlink" x="0px" y="0px"
	 width="100%" viewBox="0 0 200 146" enable-background="new 0 0 200 146" xml:space="preserve">
<path fill="#000000" opacity="1.000000" stroke="none" 
	d="
M144.000000,147.000000 
	C96.000000,147.000000 48.500004,147.000000 1.000006,147.000000 
	C1.000004,98.333336 1.000004,49.666679 1.000002,1.000013 
	C67.666656,1.000009 134.333313,1.000009 200.999969,1.000004 
	C200.999985,49.666656 200.999985,98.333313 201.000000,146.999985 
	C182.166672,147.000000 163.333328,147.000000 144.000000,147.000000 
M39.125000,126.994514 
	C33.845078,126.994514 28.565153,126.994514 23.240742,126.994514 
	C23.240742,130.556824 23.240742,133.628860 23.240742,136.027481 
	C29.220303,137.058945 34.839935,138.822159 40.473854,138.869064 
	C72.792381,139.138168 105.114304,138.999985 138.667252,138.999985 
	C136.495026,136.931183 135.163162,135.254700 133.469589,134.116287 
	C122.780075,126.930656 119.988548,120.010971 122.907372,107.449196 
	C123.747681,103.832748 121.264320,102.263695 118.620056,101.302933 
	C103.977272,95.982628 89.824051,96.293396 76.329399,105.041138 
	C74.608070,106.156960 71.946381,106.506248 69.848549,106.231544 
	C62.979069,105.332008 56.056973,105.700180 50.831425,110.104881 
	C47.138374,113.217804 43.763187,114.420128 39.312996,114.031998 
	C38.243881,113.938759 37.140076,114.243294 36.143490,114.354691 
	C36.143490,118.009605 36.143490,121.318314 36.143490,123.642998 
	C37.784611,125.127991 38.854778,126.096352 39.998249,126.995720 
	C39.998249,126.995720 40.067341,126.922516 39.125000,126.994514 
M127.855354,108.660027 
	C125.461685,118.260429 127.392853,122.939690 133.878723,128.369370 
	C143.822418,136.693787 154.981506,136.750900 166.134720,131.804352 
	C173.021866,128.749863 179.493683,121.112038 177.804916,112.709702 
	C176.802841,107.723785 173.866379,103.126656 171.627365,97.956947 
	C177.600174,90.387535 184.237335,82.163216 190.623764,73.748596 
	C192.183960,71.692902 192.548111,69.502800 190.457504,66.717888 
	C181.360657,54.599808 172.688629,42.162827 163.897903,29.891438 
	C166.862427,26.147539 169.610916,22.510830 172.542816,19.028559 
	C174.711227,16.453119 176.280624,13.879140 173.235611,11.070839 
	C170.953369,8.966004 166.108047,9.905190 164.052002,12.563349 
	C160.677551,16.925976 157.345154,21.322880 153.887482,25.618765 
	C151.490753,28.596508 151.467316,31.384842 153.864304,34.361465 
	C155.996979,37.009827 157.839432,39.898838 160.051453,42.474243 
	C161.982635,44.722683 161.718750,46.441578 159.911255,48.652138 
	C151.673843,58.726555 143.518600,68.869865 135.462830,79.090103 
	C132.935349,82.296677 130.810837,85.820877 127.792755,90.237381 
	C140.254120,90.999611 151.408936,91.681915 164.125717,92.459763 
	C161.594406,93.641655 160.406876,94.662117 159.219177,94.662300 
	C155.811142,94.662827 152.362289,93.790237 149.002762,94.087929 
	C139.653595,94.916351 131.932083,98.578140 127.855354,108.660027 
M69.543510,31.044287 
	C63.366421,33.586838 57.189331,36.129387 51.024612,38.666847 
	C52.455624,44.116936 55.587158,47.128380 60.881577,46.852146 
	C64.221413,46.677891 65.433044,48.634407 66.926003,50.607830 
	C67.881981,51.871464 68.478851,53.401436 69.292282,54.779194 
	C72.697906,60.547543 76.124519,66.303497 79.590797,72.143791 
	C73.947289,74.424370 68.950394,76.443657 62.207191,79.168633 
	C65.721024,81.173576 68.663094,84.190758 70.355438,83.603920 
	C82.715408,79.317993 94.824417,74.308334 107.324013,69.405014 
	C105.962914,67.148811 104.735176,65.113678 103.412712,62.921509 
	C98.069374,64.994347 92.777077,67.047386 87.394661,69.135391 
	C85.287888,65.880272 82.712479,63.142601 81.582062,59.901024 
	C79.080414,52.727325 69.220245,47.831829 75.289360,37.755947 
	C77.269173,34.469082 73.540726,30.442076 69.543510,31.044287 
M108.977173,84.970276 
	C107.923721,82.130745 106.848625,79.299019 105.822510,76.449638 
	C104.648911,73.190727 102.892891,72.393463 99.474098,73.916229 
	C92.310707,77.106880 84.940407,79.833588 77.650597,82.739594 
	C71.915367,85.025871 71.436859,85.600670 75.598518,89.914658 
	C82.031990,96.583641 81.380249,98.456650 91.292328,95.435387 
	C94.970139,94.314377 99.043571,93.982422 102.910294,94.106972 
	C109.008598,94.303413 108.999275,94.595245 108.999916,88.358017 
	C109.000008,87.524918 108.998962,86.691826 108.977173,84.970276 
M30.343956,114.000008 
	C23.254333,114.000008 16.164713,114.000008 9.347263,114.000008 
	C9.347263,118.092361 9.347263,121.500198 9.347263,124.654457 
	C17.775505,124.654457 25.853998,124.654457 33.998402,124.654457 
	C33.998402,121.645950 34.218227,118.953979 33.875042,116.335808 
	C33.760284,115.460335 32.207348,114.773376 30.343956,114.000008 
z"/>
<path fill="#FFFFFF" opacity="1.000000" stroke="none" 
	d="
M127.922653,108.247498 
	C131.932083,98.578140 139.653595,94.916351 149.002762,94.087929 
	C152.362289,93.790237 155.811142,94.662827 159.219177,94.662300 
	C160.406876,94.662117 161.594406,93.641655 164.125717,92.459763 
	C151.408936,91.681915 140.254120,90.999611 127.792755,90.237381 
	C130.810837,85.820877 132.935349,82.296677 135.462830,79.090103 
	C143.518600,68.869865 151.673843,58.726555 159.911255,48.652138 
	C161.718750,46.441578 161.982635,44.722683 160.051453,42.474243 
	C157.839432,39.898838 155.996979,37.009827 153.864304,34.361465 
	C151.467316,31.384842 151.490753,28.596508 153.887482,25.618765 
	C157.345154,21.322880 160.677551,16.925976 164.052002,12.563349 
	C166.108047,9.905190 170.953369,8.966004 173.235611,11.070839 
	C176.280624,13.879140 174.711227,16.453119 172.542816,19.028559 
	C169.610916,22.510830 166.862427,26.147539 163.897903,29.891438 
	C172.688629,42.162827 181.360657,54.599808 190.457504,66.717888 
	C192.548111,69.502800 192.183960,71.692902 190.623764,73.748596 
	C184.237335,82.163216 177.600174,90.387535 171.627365,97.956947 
	C173.866379,103.126656 176.802841,107.723785 177.804916,112.709702 
	C179.493683,121.112038 173.021866,128.749863 166.134720,131.804352 
	C154.981506,136.750900 143.822418,136.693787 133.878723,128.369370 
	C127.392853,122.939690 125.461685,118.260429 127.922653,108.247498 
M157.973892,115.538185 
	C157.499786,116.002205 156.969284,116.421555 156.560730,116.937469 
	C153.837891,120.375702 150.542435,119.589218 148.011734,117.277763 
	C145.708359,115.173912 146.804474,112.647179 148.955124,110.464104 
	C150.603760,108.790627 151.778702,106.650497 153.283554,104.551605 
	C146.227142,104.153900 141.133926,107.390404 139.856339,112.448967 
	C138.530121,117.700058 141.727921,120.355812 145.351456,122.720192 
	C149.733749,125.579651 157.208603,124.077019 161.485367,120.119865 
	C164.831787,117.023529 164.571472,113.858971 162.741501,109.511810 
	C161.025040,111.731934 159.760056,113.368095 157.973892,115.538185 
z"/>
<path fill="#FFFFFF" opacity="1.000000" stroke="none" 
	d="
M39.924950,127.064713 
	C38.854778,126.096352 37.784611,125.127991 36.143490,123.642998 
	C36.143490,121.318314 36.143490,118.009605 36.143490,114.354691 
	C37.140076,114.243294 38.243881,113.938759 39.312996,114.031998 
	C43.763187,114.420128 47.138374,113.217804 50.831425,110.104881 
	C56.056973,105.700180 62.979069,105.332008 69.848549,106.231544 
	C71.946381,106.506248 74.608070,106.156960 76.329399,105.041138 
	C89.824051,96.293396 103.977272,95.982628 118.620056,101.302933 
	C121.264320,102.263695 123.747681,103.832748 122.907372,107.449196 
	C119.988548,120.010971 122.780075,126.930656 133.469589,134.116287 
	C135.163162,135.254700 136.495026,136.931183 138.667252,138.999985 
	C105.114304,138.999985 72.792381,139.138168 40.473854,138.869064 
	C34.839935,138.822159 29.220303,137.058945 23.240742,136.027481 
	C23.240742,133.628860 23.240742,130.556824 23.240742,126.994514 
	C28.565153,126.994514 33.845078,126.994514 39.564919,127.390129 
	C39.628826,130.400772 39.252819,133.015793 38.852551,135.799561 
	C41.842789,135.799561 44.238819,135.799561 46.671417,135.799561 
	C46.671417,132.743637 46.671417,129.900513 46.671417,127.064713 
	C44.203541,127.064713 42.064243,127.064713 39.924950,127.064713 
M55.603657,136.000000 
	C61.708736,136.000000 67.813820,136.000000 73.998009,136.000000 
	C73.998009,133.567596 74.313934,131.661057 73.885132,129.940079 
	C73.606834,128.823151 72.268646,127.167557 71.359970,127.137772 
	C64.275696,126.905548 57.180405,127.009361 50.148430,127.009361 
	C50.148430,130.276215 50.148430,132.899826 50.148430,136.000000 
	C51.736870,136.000000 53.183296,136.000000 55.603657,136.000000 
M48.071835,115.000610 
	C45.604458,117.695900 43.137085,120.391182 40.128933,123.677193 
	C47.770527,123.677193 53.838795,123.677193 59.683697,123.677193 
	C59.683697,120.609421 59.683697,117.875755 59.683697,115.000046 
	C55.899048,115.000046 52.428612,115.000046 48.071835,115.000610 
z"/>
<path fill="#FFFFFF" opacity="1.000000" stroke="none" 
	d="
M69.933853,31.023140 
	C73.540726,30.442076 77.269173,34.469082 75.289360,37.755947 
	C69.220245,47.831829 79.080414,52.727325 81.582062,59.901024 
	C82.712479,63.142601 85.287888,65.880272 87.394661,69.135391 
	C92.777077,67.047386 98.069374,64.994347 103.412712,62.921509 
	C104.735176,65.113678 105.962914,67.148811 107.324013,69.405014 
	C94.824417,74.308334 82.715408,79.317993 70.355438,83.603920 
	C68.663094,84.190758 65.721024,81.173576 62.207191,79.168633 
	C68.950394,76.443657 73.947289,74.424370 79.590797,72.143791 
	C76.124519,66.303497 72.697906,60.547543 69.292282,54.779194 
	C68.478851,53.401436 67.881981,51.871464 66.926003,50.607830 
	C65.433044,48.634407 64.221413,46.677891 60.881577,46.852146 
	C55.587158,47.128380 52.455624,44.116936 51.024612,38.666847 
	C57.189331,36.129387 63.366421,33.586838 69.933853,31.023140 
z"/>
<path fill="#FFFFFF" opacity="1.000000" stroke="none" 
	d="
M108.987808,85.414505 
	C108.998962,86.691826 109.000008,87.524918 108.999916,88.358017 
	C108.999275,94.595245 109.008598,94.303413 102.910294,94.106972 
	C99.043571,93.982422 94.970139,94.314377 91.292328,95.435387 
	C81.380249,98.456650 82.031990,96.583641 75.598518,89.914658 
	C71.436859,85.600670 71.915367,85.025871 77.650597,82.739594 
	C84.940407,79.833588 92.310707,77.106880 99.474098,73.916229 
	C102.892891,72.393463 104.648911,73.190727 105.822510,76.449638 
	C106.848625,79.299019 107.923721,82.130745 108.987808,85.414505 
z"/>
<path fill="#FFFFFF" opacity="1.000000" stroke="none" 
	d="
M30.827888,114.000130 
	C32.207348,114.773376 33.760284,115.460335 33.875042,116.335808 
	C34.218227,118.953979 33.998402,121.645950 33.998402,124.654457 
	C25.853998,124.654457 17.775505,124.654457 9.347263,124.654457 
	C9.347263,121.500198 9.347263,118.092361 9.347263,114.000008 
	C16.164713,114.000008 23.254333,114.000008 30.827888,114.000130 
z"/>
<path fill="#000000" opacity="1.000000" stroke="none" 
	d="
M158.234482,115.271225 
	C159.760056,113.368095 161.025040,111.731934 162.741501,109.511810 
	C164.571472,113.858971 164.831787,117.023529 161.485367,120.119865 
	C157.208603,124.077019 149.733749,125.579651 145.351456,122.720192 
	C141.727921,120.355812 138.530121,117.700058 139.856339,112.448967 
	C141.133926,107.390404 146.227142,104.153900 153.283554,104.551605 
	C151.778702,106.650497 150.603760,108.790627 148.955124,110.464104 
	C146.804474,112.647179 145.708359,115.173912 148.011734,117.277763 
	C150.542435,119.589218 153.837891,120.375702 156.560730,116.937469 
	C156.969284,116.421555 157.499786,116.002205 158.234482,115.271225 
z"/>
<path fill="#000000" opacity="1.000000" stroke="none" 
	d="
M55.116692,136.000000 
	C53.183296,136.000000 51.736870,136.000000 50.148430,136.000000 
	C50.148430,132.899826 50.148430,130.276215 50.148430,127.009361 
	C57.180405,127.009361 64.275696,126.905548 71.359970,127.137772 
	C72.268646,127.167557 73.606834,128.823151 73.885132,129.940079 
	C74.313934,131.661057 73.998009,133.567596 73.998009,136.000000 
	C67.813820,136.000000 61.708736,136.000000 55.116692,136.000000 
z"/>
<path fill="#000000" opacity="1.000000" stroke="none" 
	d="
M48.515003,115.000328 
	C52.428612,115.000046 55.899048,115.000046 59.683697,115.000046 
	C59.683697,117.875755 59.683697,120.609421 59.683697,123.677193 
	C53.838795,123.677193 47.770527,123.677193 40.128933,123.677193 
	C43.137085,120.391182 45.604458,117.695900 48.515003,115.000328 
z"/>
<path fill="#000000" opacity="1.000000" stroke="none" 
	d="
M39.961601,127.030212 
	C42.064243,127.064713 44.203541,127.064713 46.671417,127.064713 
	C46.671417,129.900513 46.671417,132.743637 46.671417,135.799561 
	C44.238819,135.799561 41.842789,135.799561 38.852551,135.799561 
	C39.252819,133.015793 39.628826,130.400772 40.036087,127.354126 
	C40.067341,126.922516 39.998249,126.995720 39.961601,127.030212 
z"/>
</svg>