<svg id="eeQKJGV9L3D1" xmlns="http://www.w3.org/2000/svg" xmlns:xlink="http://www.w3.org/1999/xlink" viewBox="0 0 200 146" shape-rendering="geometricPrecision" text-rendering="geometricPrecision"><path d="M127.922653,108.247498c4.00943-9.669358,11.730942-13.331147,21.080109-14.159569c3.359527-.297692,6.80838.574898,10.216415.574371c1.187699-.000183,2.375229-1.020645,4.90654-2.202537-12.716781-.777848-23.871597-1.460152-36.332962-2.222382c3.018082-4.416504,5.142594-7.940704,7.670075-11.147278c8.05577-10.220238,16.211013-20.363548,24.448425-30.437965c1.807495-2.21056,2.07138-3.929455.140198-6.177895-2.212021-2.575405-4.054474-5.464416-6.187149-8.112778-2.396988-2.976623-2.373551-5.764957.023178-8.7427c3.457672-4.295885,6.790069-8.692789,10.16452-13.055416c2.056045-2.658159,6.901367-3.597345,9.183609-1.49251c3.045013,2.808301,1.475616,5.38228-.692795,7.95772-2.9319,3.482271-5.680389,7.11898-8.644913,10.862879c8.790726,12.271389,17.462754,24.70837,26.559601,36.82645c2.090607,2.784912,1.726456,4.975014.16626,7.030708-6.386429,8.41462-13.02359,16.638939-18.996399,24.208351c2.239014,5.169709,5.175476,9.766838,6.177551,14.752755c1.688767,8.402336-4.78305,16.040161-11.670196,19.09465-11.153214,4.946548-22.312302,4.889435-32.255997-3.434982-6.48587-5.42968-8.417038-10.108941-5.95607-20.121872m30.051239,7.290687c-.474106.46402-1.004608.88337-1.413162,1.399284c0,0-6.018295,2.651749-8.548996.340294-2.303375-2.103851-1.20726-4.630584.94339-6.813659c1.648636-1.673477,2.823578-3.813607,4.32843-5.912499-7.056412-.397705-12.149628,2.838799-13.427215,7.897362-1.326218,5.251091,1.871582,7.906845,5.495117,10.271225c4.382293,2.859459,11.857147,1.356827,16.133911-2.600327c3.34642-3.096336,3.086105-6.260894,1.256134-10.608055-1.716461,2.220124-2.981445,3.856285-4.767609,6.026375Z" transform="translate(-.623679-1.4777)" fill="#5f64e3" stroke="rgba(17,43,64,0)"/><path d="M39.92495,127.064713c-1.070172-.968361-2.140339-1.936722-3.78146-3.421715c0-2.324684,0-5.633393,0-9.288307.996586-.111397,2.100391-.415932,3.169506-.322693c4.450191.38813,7.825378-.814194,11.518429-3.927117c5.225548-4.404701,12.147644-4.772873,19.017124-3.873337c2.097832.274704,4.759521-.074584,6.48085-1.190406c13.494652-8.747742,27.647873-9.05851,42.290657-3.738205c2.644264.960762,5.127625,2.529815,4.287316,6.146263-2.918824,12.561775-.127297,19.48146,10.562217,26.667091c1.693573,1.138413,3.025437,2.814896,5.197663,4.883698-33.552948,0-65.874871.138183-98.193398-.130921-5.633919-.046905-11.253551-1.810119-17.233112-2.841583c0-2.398621,0-5.470657,0-9.032967c5.324411,0,10.604336,0,16.324177.395615.063907,3.010643-.3121,5.625664-.712368,8.409432c2.990238,0,5.386268,0,7.818866,0c0-3.055924,0-5.899048,0-8.734848-2.467876,0-4.607174,0-6.746467,0M55.603657,136c6.105079,0,12.210163,0,18.394352,0c0-2.432404.315925-4.338943-.112877-6.059921-.278298-1.116928-1.616486-2.772522-2.525162-2.802307-7.084274-.232224-14.179565-.128411-21.21154-.128411c0,3.266854,0,5.890465,0,8.990639c1.58844,0,3.034866,0,5.455227,0m-7.531822-20.99939c-2.467377,2.69529-4.93475,5.390572-7.942902,8.676583c7.641594,0,13.709862,0,19.554764,0c0-3.067772,0-5.801438,0-8.677147-3.784649,0-7.255085,0-11.611862.000564Z" transform="translate(-.623689-1.4777)" fill="#5f64e3" stroke="rgba(17,43,64,0)"/><path d="M69.933853,31.02314c3.606873-.581064,7.33532,3.445942,5.355507,6.732807-6.069115,10.075882,3.791054,14.971378,6.292702,22.145077c1.130417,3.241577,3.705826,5.979248,5.812599,9.234367c5.382416-2.088005,10.674713-4.141044,16.018051-6.213882c1.322464,2.192169,2.550202,4.227302,3.911301,6.483505-12.499596,4.90332-24.608605,9.912979-36.968575,14.198906-1.692344.586838-4.634414-2.430344-8.148247-4.435287c6.743203-2.724976,11.740098-4.744263,17.383606-7.024842-3.466278-5.840294-6.892891-11.596248-10.298515-17.364597-.813431-1.377758-1.410301-2.90773-2.366279-4.171364-1.492959-1.973423-2.70459-3.929939-6.044426-3.755684-5.294419.276234-8.425953-2.73521-9.856965-8.185299c6.164719-2.53746,12.341809-5.080009,18.909241-7.643707Z" transform="translate(-.623689-1.4777)" fill="#5f64e3" stroke="rgba(17,43,64,0)"/><path d="M108.987808,85.414505c.011154,1.277321.0122,2.110413.012108,2.943512-.000641,6.237228.008682,5.945396-6.089622,5.748955-3.866723-.12455-7.940155.207405-11.617966,1.328415-9.912079,3.021263-9.260338,1.148254-15.69381-5.520729-4.161659-4.313988-3.683151-4.888787,2.052079-7.175064c7.28981-2.906006,14.66011-5.632714,21.823501-8.823365c3.418793-1.522766,5.174813-.725502,6.348412,2.533409c1.026115,2.849381,2.101211,5.681107,3.165298,8.964867Z" transform="translate(-.623679-1.4777)" fill="#5f64e3" stroke="rgba(17,43,64,0)"/><path d="M30.827888,114.00013c1.37946.773246,2.932396,1.460205,3.047154,2.335678.343185,2.618171.12336,5.310142.12336,8.318649-8.144404,0-16.222897,0-24.651139,0c0-3.154259,0-6.562096,0-10.654449c6.81745,0,13.90707,0,21.480625.000122Z" transform="translate(-.623689-1.4777)" fill="#5f64e3" stroke="rgba(17,43,64,0)"/><path d="M158.234482,115.271225c1.525574-1.90313,2.790558-3.539291,4.507019-5.759415c1.829971,4.347161,2.090286,7.511719-1.256134,10.608055-4.276764,3.957154-11.751618,5.459786-16.133911,2.600327-3.623535-2.36438-6.821335-5.020134-5.495117-10.271225c1.277587-5.058563,6.370803-8.295067,13.427215-7.897362-1.504852,2.098892-2.679794,4.239022-4.32843,5.912499-2.15065,2.183075-3.246765,4.709808-.94339,6.813659c2.530701,2.311455,5.826157,3.097939,8.548996-.340294.408554-.515914.939056-.935264,1.673752-1.666244Z" fill="#5f64e3" stroke="rgba(17,43,64,0)"/><path d="M55.116692,136c-1.933396,0-3.379822,0-4.968262,0c0-3.100174,0-5.723785,0-8.990639c7.031975,0,14.127266-.103813,21.21154.128411.908676.029785,2.246864,1.685379,2.525162,2.802307.428802,1.720978.112877,3.627517.112877,6.059921-6.184189,0-12.289273,0-18.881317,0Z" fill="#5f64e3" stroke="rgba(17,43,64,0)"/><path d="M48.515003,115.000328c3.913609-.000282,7.384045-.000282,11.168694-.000282c0,2.875709,0,5.609375,0,8.677147-5.844902,0-11.91317,0-19.554764,0c3.008152-3.286011,5.475525-5.981293,8.38607-8.676865Z" fill="#5f64e3" stroke="rgba(17,43,64,0)"/><path d="M39.961601,127.030212c2.102642.034501,4.24194.034501,6.709816.034501c0,2.8358,0,5.678924,0,8.734848-2.432598,0-4.828628,0-7.818866,0c.400268-2.783768.776275-5.398789,1.183536-8.445435.031254-.43161-.037838-.358406-.074486-.323914Z" fill="#5f64e3" stroke="rgba(17,43,64,0)"/></svg>
